<svg width="50" height="50" viewBox="0 0 50 50" fill="none" xmlns="http://www.w3.org/2000/svg">
<path d="M25 4.16669C13.7062 4.16669 4.16666 13.7063 4.16666 25C4.16666 31.6438 7.48332 37.6625 12.5 41.5084V41.6667H12.7125C16.1875 44.2604 20.4437 45.8334 25 45.8334C29.5562 45.8334 33.8125 44.2604 37.2875 41.6667H37.5V41.5084C42.5167 37.6625 45.8333 31.6459 45.8333 25C45.8333 13.7063 36.2937 4.16669 25 4.16669ZM16.8208 39.4313C17.1278 38.0425 17.899 36.7999 19.0072 35.9083C20.1154 35.0168 21.4944 34.5296 22.9167 34.5271H27.0833C28.5055 34.53 29.8843 35.0173 30.9924 35.9088C32.1005 36.8003 32.8718 38.0427 33.1792 39.4313C30.7458 40.8417 27.95 41.6667 25 41.6667C22.05 41.6667 19.2542 40.8417 16.8208 39.4313ZM36.6875 36.7521C35.8928 34.8602 34.5578 33.2446 32.8494 32.1077C31.1411 30.9708 29.1354 30.363 27.0833 30.3604H22.9167C20.8646 30.363 18.8589 30.9708 17.1505 32.1077C15.4422 33.2446 14.1072 34.8602 13.3125 36.7521C10.2562 33.7125 8.33332 29.5334 8.33332 25C8.33332 15.9646 15.9646 8.33335 25 8.33335C34.0354 8.33335 41.6667 15.9646 41.6667 25C41.6667 29.5334 39.7437 33.7125 36.6875 36.7521Z" fill="#E0E0E0"/>
<path d="M25 12.5C20.25 12.5 16.6667 16.0833 16.6667 20.8333C16.6667 25.5833 20.25 29.1667 25 29.1667C29.75 29.1667 33.3333 25.5833 33.3333 20.8333C33.3333 16.0833 29.75 12.5 25 12.5ZM25 25C22.5458 25 20.8333 23.2875 20.8333 20.8333C20.8333 18.3792 22.5458 16.6667 25 16.6667C27.4542 16.6667 29.1667 18.3792 29.1667 20.8333C29.1667 23.2875 27.4542 25 25 25Z" fill="#E0E0E0"/>
</svg>
