<svg width="40" height="40" viewBox="0 0 40 40" fill="none" xmlns="http://www.w3.org/2000/svg">
<path d="M33.3333 18.3333C32.8913 18.3333 32.4674 18.5089 32.1548 18.8215C31.8423 19.134 31.6667 19.558 31.6667 20V30C31.6667 30.442 31.4911 30.866 31.1785 31.1785C30.866 31.4911 30.442 31.6667 30 31.6667H10C9.55797 31.6667 9.13405 31.4911 8.82149 31.1785C8.50893 30.866 8.33333 30.442 8.33333 30V10C8.33333 9.55797 8.50893 9.13405 8.82149 8.82149C9.13405 8.50893 9.55797 8.33333 10 8.33333H20C20.442 8.33333 20.8659 8.15774 21.1785 7.84518C21.4911 7.53262 21.6667 7.10869 21.6667 6.66667C21.6667 6.22464 21.4911 5.80072 21.1785 5.48816C20.8659 5.17559 20.442 5 20 5H10C8.67392 5 7.40215 5.52678 6.46447 6.46447C5.52678 7.40215 5 8.67392 5 10V30C5 31.3261 5.52678 32.5979 6.46447 33.5355C7.40215 34.4732 8.67392 35 10 35H30C31.3261 35 32.5979 34.4732 33.5355 33.5355C34.4732 32.5979 35 31.3261 35 30V20C35 19.558 34.8244 19.134 34.5118 18.8215C34.1993 18.5089 33.7754 18.3333 33.3333 18.3333Z" fill="white"/>
<path d="M26.6667 8.33333H29.3L18.8167 18.8C18.6604 18.9549 18.5365 19.1393 18.4518 19.3424C18.3672 19.5455 18.3237 19.7633 18.3237 19.9833C18.3237 20.2034 18.3672 20.4212 18.4518 20.6243C18.5365 20.8274 18.6604 21.0117 18.8167 21.1667C18.9716 21.3229 19.1559 21.4469 19.359 21.5315C19.5621 21.6161 19.78 21.6597 20 21.6597C20.22 21.6597 20.4379 21.6161 20.641 21.5315C20.8441 21.4469 21.0284 21.3229 21.1833 21.1667L31.6667 10.7V13.3333C31.6667 13.7754 31.8423 14.1993 32.1548 14.5118C32.4674 14.8244 32.8913 15 33.3333 15C33.7754 15 34.1993 14.8244 34.5118 14.5118C34.8244 14.1993 35 13.7754 35 13.3333V6.66667C35 6.22464 34.8244 5.80072 34.5118 5.48816C34.1993 5.17559 33.7754 5 33.3333 5H26.6667C26.2246 5 25.8007 5.17559 25.4882 5.48816C25.1756 5.80072 25 6.22464 25 6.66667C25 7.10869 25.1756 7.53262 25.4882 7.84518C25.8007 8.15774 26.2246 8.33333 26.6667 8.33333Z" fill="white"/>
</svg>
