<svg width="50" height="50" viewBox="0 0 50 50" fill="none" xmlns="http://www.w3.org/2000/svg">
<path d="M29.1667 12.5V8.33334H20.8333V12.5H29.1667ZM8.33332 18.75V37.5C8.33332 38.6458 9.27082 39.5833 10.4167 39.5833H39.5833C40.7292 39.5833 41.6667 38.6458 41.6667 37.5V18.75C41.6667 17.6042 40.7292 16.6667 39.5833 16.6667H10.4167C9.27082 16.6667 8.33332 17.6042 8.33332 18.75ZM41.6667 12.5C43.9792 12.5 45.8333 14.3542 45.8333 16.6667V39.5833C45.8333 41.8958 43.9792 43.75 41.6667 43.75H8.33332C6.02082 43.75 4.16666 41.8958 4.16666 39.5833L4.18749 16.6667C4.18749 14.3542 6.02082 12.5 8.33332 12.5H16.6667V8.33334C16.6667 6.02084 18.5208 4.16667 20.8333 4.16667H29.1667C31.4792 4.16667 33.3333 6.02084 33.3333 8.33334V12.5H41.6667Z" fill="#E0E0E0"/>
</svg>
