<svg width="50" height="50" viewBox="0 0 50 50" fill="none" xmlns="http://www.w3.org/2000/svg">
<path d="M43.125 16.7588L26.0615 8.33691C25.7314 8.17404 25.3681 8.08933 25 8.08933C24.6319 8.08933 24.2686 8.17404 23.9385 8.33691L6.875 16.7588C6.22084 17.0793 5.66934 17.5764 5.28279 18.1938C4.89624 18.8112 4.69005 19.5245 4.6875 20.2529V38.2812C4.6875 40.4385 6.45898 42.1875 8.64453 42.1875H41.3594C43.5449 42.1875 45.3164 40.4385 45.3164 38.2812V20.2529C45.3135 19.5241 45.1067 18.8105 44.7195 18.1931C44.3322 17.5756 43.7799 17.0788 43.125 16.7588V16.7588Z" stroke="#E0E0E0" stroke-width="3.125" stroke-linecap="round" stroke-linejoin="round"/>
<path d="M38.8018 35.9375L26.1787 26.1191C25.7673 25.7991 25.261 25.6254 24.7397 25.6254C24.2185 25.6254 23.7122 25.7991 23.3008 26.1191L10.6768 35.9375" stroke="#E0E0E0" stroke-width="3.125" stroke-linecap="round" stroke-linejoin="round"/>
<path d="M30.208 28.8086L43.4893 18.75" stroke="#E0E0E0" stroke-width="3.125" stroke-linecap="round" stroke-linejoin="round"/>
<path d="M5.98926 18.75L19.5635 29.0039" stroke="#E0E0E0" stroke-width="3.125" stroke-linecap="round" stroke-linejoin="round"/>
</svg>
