<svg width="214" height="36" viewBox="0 0 214 36" fill="none" xmlns="http://www.w3.org/2000/svg">
<path d="M16.8192 0.521267H23.8171V12.1765C23.8171 17.4706 23.7125 20.5086 23.5034 21.2905C23.1656 22.8543 22.7553 24.1819 22.2727 25.2733C21.7258 26.7068 20.5916 28.4009 18.8703 30.3556C16.6985 32.4081 14.8485 33.6787 13.3202 34.1674C12.6285 34.5421 11.4943 34.9249 9.91776 35.3158C9.1134 35.5765 5.80748 35.7149 0 35.7312V28.8652H3.93332C7.03815 28.8652 8.96057 28.6452 9.70058 28.2054C10.7141 27.9774 12.0574 27.114 13.7304 25.6154C15.7574 23.5466 16.7709 20.81 16.7709 17.4054C16.8031 16.9493 16.8192 15.7276 16.8192 13.7403V0.521267Z" fill="white"/>
<path d="M82.3665 0.496832H104.712C108.653 0.496832 111.742 1.69412 113.978 4.08869C114.975 5.03348 115.667 5.9457 116.053 6.82534C116.922 8.58461 117.356 10.3032 117.356 11.981V12.9828C117.356 15.5566 116.254 18.0733 114.05 20.533C112.635 21.9014 111.348 22.781 110.189 23.1719C113.117 26.3321 114.581 30.5104 114.581 35.7068H107.559V35.1692C107.559 31.3249 106.023 28.2706 102.95 26.0063C101.197 24.752 98.9041 24.1249 96.0728 24.1249H82.3665V17.3321H105.146C107.639 17.3321 109.329 16.086 110.213 13.5937C110.31 13.0887 110.374 12.6652 110.406 12.3231C110.406 10.9385 109.835 9.68416 108.693 8.56018C107.712 7.77828 106.666 7.38733 105.556 7.38733C105.556 7.32217 105.218 7.28959 104.543 7.28959H82.3665V0.496832Z" fill="white"/>
<path d="M126.124 0.521267H133.097V35.7068H126.124V0.521267Z" fill="white"/>
<path d="M137.964 0H172.954V6.81719H158.982V35.1855H151.936V6.81719H137.964V0Z" fill="white"/>
<path d="M178.552 0H214L191.751 28.3928H213.542V35.1855H178.118L200.366 6.79276H178.552V0Z" fill="white"/>
<path d="M41.1832 36L76.8621 36V15.1493L41.1832 15.1493L41.1832 36Z" fill="white"/>
<path d="M41.1832 0.0325792L77.4438 0.0325824V21.9258L41.1832 21.9258V0.0325792Z" fill="white"/>
<path d="M31.917 0.521267H38.8908V35.7068H31.917V0.521267Z" fill="white"/>
</svg>
