<svg width="50" height="50" viewBox="0 0 50 50" fill="none" xmlns="http://www.w3.org/2000/svg">
<path d="M8.20312 4.29688L7.32344 5.12656L5.12656 7.32344L4.29688 8.20312L4.93125 9.22813L8.20312 14.6969L8.64219 15.4781H13.2344L19.4844 21.6797C13.9 27.2891 6.79531 34.4172 6.54531 34.6687C4.09688 37.1156 4.09219 41.125 6.59219 43.4578C9.03437 45.8672 13.0141 45.9297 15.3344 43.4578L15.3812 43.4078L25 33.7406L34.6687 43.4562L34.8141 43.5547C37.2672 45.8672 41.1688 45.8984 43.4578 43.4562V43.4094H43.5047C45.8984 40.9609 45.9234 36.9813 43.4578 34.6672L43.4078 34.6203L35.2547 26.5141C40.7406 26.0016 45.0375 21.3687 45.1172 15.7719H45.1656C45.1719 15.7406 45.1656 15.7047 45.1656 15.6734V15.625C45.3187 13.8188 44.9281 12.0906 43.9938 10.5953L42.9219 8.9375L35.6453 16.2125L33.4484 13.9172L40.8703 6.49531L38.7219 5.61719C37.3514 5.01428 35.8722 4.69791 34.375 4.6875C28.3687 4.6875 23.4375 9.61875 23.4375 15.625C23.4375 16.2781 23.5781 16.8453 23.6812 17.4313C22.9984 18.1156 22.4859 18.6766 21.6797 19.4828L15.4781 13.2812V8.64219L14.6969 8.20312L9.22813 4.93125L8.20312 4.29688ZM34.375 7.8125C34.5938 7.8125 34.7469 7.94062 34.9609 7.95937L29.0531 13.8672L30.1266 14.9906L34.5219 19.5312L35.5953 20.6547L41.7969 14.4531C41.8281 14.8125 42.0844 15.075 42.0406 15.4781V15.625C42.0406 19.9281 38.5312 23.4375 34.2281 23.4375C33.6547 23.4375 32.9594 23.3031 32.1781 23.1438L31.3469 22.9984L30.7609 23.5844L13.1359 41.2594H13.0859V41.3094C11.9766 42.5234 10.0344 42.5531 8.74062 41.2594V41.2109H8.69062C7.47656 40.1016 7.44687 38.1594 8.74062 36.8656C9.33281 36.2719 20.8 24.7062 26.4156 19.0922L27.0516 18.4578L26.8062 17.5781C26.658 16.9372 26.5763 16.2827 26.5625 15.625C26.5625 11.3219 30.0719 7.8125 34.375 7.8125ZM8.69062 8.20312L12.3531 10.45V12.0125L12.0125 12.3531H10.45L8.20312 8.69219L8.69062 8.20312ZM31.5422 27.1969L41.2609 36.8656V36.9141H41.3078C42.5234 38.0234 42.5531 39.9656 41.2609 41.2594H41.2109V41.3094C40.1016 42.5234 38.1594 42.5531 36.8656 41.2594L27.1969 31.5437L31.5422 27.1969Z" fill="#E0E0E0"/>
</svg>
