<svg width="22" height="25" viewBox="0 0 22 25" fill="none" xmlns="http://www.w3.org/2000/svg">
<g clip-path="url(#clip0)">
<path d="M20.3125 1.5625H1.55762C0.698242 1.5625 0 2.27051 0 3.13965V21.8604C0 22.7295 0.698242 23.4375 1.55762 23.4375H20.3125C21.1719 23.4375 21.875 22.7295 21.875 21.8604V3.13965C21.875 2.27051 21.1719 1.5625 20.3125 1.5625ZM6.61133 20.3125H3.36914V9.87305H6.61621V20.3125H6.61133ZM4.99023 8.44727C3.9502 8.44727 3.11035 7.60254 3.11035 6.56738C3.11035 5.53223 3.9502 4.6875 4.99023 4.6875C6.02539 4.6875 6.87012 5.53223 6.87012 6.56738C6.87012 7.60742 6.03027 8.44727 4.99023 8.44727ZM18.7646 20.3125H15.5225V15.2344C15.5225 14.0234 15.498 12.4658 13.8379 12.4658C12.1484 12.4658 11.8896 13.7842 11.8896 15.1465V20.3125H8.64746V9.87305H11.7578V11.2988H11.8018C12.2363 10.4785 13.2959 9.61426 14.873 9.61426C18.1543 9.61426 18.7646 11.7773 18.7646 14.5898V20.3125Z" fill="white"/>
</g>
<defs>
<clipPath id="clip0">
<rect width="21.875" height="25" fill="white"/>
</clipPath>
</defs>
</svg>
