<svg width="25" height="25" viewBox="0 0 25 25" fill="none" xmlns="http://www.w3.org/2000/svg">
<path d="M23.0005 8.22061L12.8535 3.20743C12.7436 3.1532 12.6226 3.125 12.5 3.125C12.3774 3.125 12.2564 3.1532 12.1465 3.20743L2.00195 8.22061C1.87077 8.28443 1.76008 8.38371 1.68241 8.5072C1.60475 8.63069 1.56321 8.77346 1.5625 8.91934V21.0937C1.56308 21.1969 1.58398 21.299 1.62403 21.3941C1.66407 21.4892 1.72247 21.5755 1.79589 21.6481C1.8693 21.7206 1.95629 21.778 2.05189 21.8169C2.14748 21.8558 2.24981 21.8755 2.35303 21.8749H22.647C22.7502 21.8755 22.8525 21.8558 22.9481 21.8169C23.0437 21.778 23.1307 21.7206 23.2041 21.6481C23.2775 21.5755 23.3359 21.4892 23.376 21.3941C23.416 21.299 23.4369 21.1969 23.4375 21.0937V8.91934C23.437 8.77372 23.3958 8.63113 23.3186 8.50766C23.2414 8.3842 23.1312 8.28477 23.0005 8.22061ZM12.5 4.77969L20.9473 8.95157L12.3682 13.1889L3.9209 9.017L12.5 4.77969Z" fill="white"/>
</svg>
