<svg width="25" height="25" viewBox="0 0 25 25" fill="none" xmlns="http://www.w3.org/2000/svg">
<path d="M21.3406 17.8541L17.1062 14.0041C16.9061 13.8222 16.6431 13.7252 16.3727 13.7335C16.1023 13.7419 15.8458 13.855 15.6573 14.0489L13.1646 16.6125C12.5646 16.4979 11.3583 16.1218 10.1167 14.8833C8.87499 13.6406 8.49895 12.4312 8.38749 11.8354L10.9489 9.34163C11.1431 9.15322 11.2564 8.89665 11.2647 8.62622C11.2731 8.35579 11.1759 8.09271 10.9937 7.89267L7.14478 3.65934C6.96253 3.45867 6.70924 3.33695 6.43869 3.32003C6.16814 3.3031 5.90165 3.39232 5.69582 3.56871L3.43541 5.50726C3.25531 5.688 3.14782 5.92856 3.13332 6.1833C3.1177 6.44371 2.81978 12.6125 7.60311 17.3979C11.776 21.5698 17.0031 21.875 18.4427 21.875C18.6531 21.875 18.7823 21.8687 18.8167 21.8666C19.0714 21.8524 19.3118 21.7444 19.4917 21.5635L21.4292 19.302C21.6063 19.0969 21.6961 18.8306 21.6796 18.5601C21.663 18.2895 21.5414 18.0362 21.3406 17.8541Z" fill="white"/>
</svg>
