<svg width="25" height="25" viewBox="0 0 25 25" fill="none" xmlns="http://www.w3.org/2000/svg">
<path d="M8.62813 21.1073C16.4896 21.1073 20.7906 14.5875 20.7906 8.94377C20.7906 8.76044 20.7906 8.5771 20.7823 8.39377C21.6199 7.78682 22.3426 7.0355 22.9167 6.17502C22.1351 6.52037 21.3066 6.74819 20.4583 6.85106C21.3521 6.31595 22.0214 5.47462 22.3417 4.48335C21.5016 4.98175 20.5819 5.33166 19.6229 5.51773C19.2237 5.09125 18.7412 4.75128 18.2053 4.51888C17.6694 4.28648 17.0914 4.16661 16.5073 4.16669C15.3732 4.16751 14.2858 4.6184 13.4839 5.42033C12.6819 6.22226 12.231 7.30967 12.2302 8.44377C12.2302 8.7771 12.2719 9.1021 12.3386 9.41877C10.6384 9.33339 8.97529 8.89142 7.45708 8.12155C5.93887 7.35168 4.59954 6.27112 3.52605 4.95002C2.98051 5.89226 2.81398 7.0068 3.06025 8.06736C3.30653 9.12791 3.94716 10.055 4.85209 10.6604C4.17405 10.637 3.51104 10.4543 2.91668 10.1271V10.1854C2.91759 11.1722 3.2591 12.1284 3.88351 12.8925C4.50792 13.6566 5.37694 14.1817 6.34376 14.3792C5.97735 14.4803 5.59885 14.5307 5.21876 14.5292C4.94272 14.5292 4.67605 14.5042 4.41668 14.4542C4.68921 15.304 5.22086 16.0472 5.93707 16.5796C6.65329 17.1119 7.51816 17.4069 8.41043 17.4229C6.89641 18.6131 5.02581 19.2589 3.10001 19.2563C2.75834 19.2563 2.41668 19.2396 2.08334 19.1979C4.03825 20.4454 6.3091 21.1079 8.62813 21.1073Z" fill="white"/>
</svg>
